<svg xmlns="http://www.w3.org/2000/svg" version="1.1" xmlns:xlink="http://www.w3.org/1999/xlink" xmlns:svgjs="http://svgjs.dev/svgjs" width="2000" height="2000" preserveAspectRatio="none" viewBox="0 0 2000 2000"><g mask="url(&quot;#SvgjsMask1914&quot;)" fill="none"><rect width="2000" height="2000" x="0" y="0" fill="rgba(17, 0, 31, 1)"></rect><path d="M2000 0L1079.05 0L2000 216.78z" fill="rgba(255, 255, 255, .1)"></path><path d="M1079.05 0L2000 216.78L2000 574.83L1029.74 0z" fill="rgba(255, 255, 255, .075)"></path><path d="M1029.74 0L2000 574.83L2000 1155.23L730.25 0z" fill="rgba(255, 255, 255, .05)"></path><path d="M730.25 0L2000 1155.23L2000 1380.41L490.3 0z" fill="rgba(255, 255, 255, .025)"></path><path d="M0 2000L773.27 2000L0 1189.56z" fill="rgba(0, 0, 0, .1)"></path><path d="M0 1189.56L773.27 2000L1216.42 2000L0 977.8z" fill="rgba(0, 0, 0, .075)"></path><path d="M0 977.8L1216.42 2000L1685.6000000000001 2000L0 597.8699999999999z" fill="rgba(0, 0, 0, .05)"></path><path d="M0 597.8699999999999L1685.6000000000001 2000L1714.71 2000L0 251.7299999999999z" fill="rgba(0, 0, 0, .025)"></path></g><defs><mask id="SvgjsMask1914"><rect width="2000" height="2000" fill="#ffffff"></rect></mask></defs></svg>