<svg xmlns="http://www.w3.org/2000/svg" version="1.1" xmlns:xlink="http://www.w3.org/1999/xlink" xmlns:svgjs="http://svgjs.dev/svgjs" width="5000" height="5000" preserveAspectRatio="none" viewBox="0 0 5000 5000"><g mask="url(&quot;#SvgjsMask1021&quot;)" fill="none"><rect width="5000" height="5000" x="0" y="0" fill="rgba(238, 234, 243, 1)"></rect><path d="M5000 0L2847.69 0L5000 2067.36z" fill="rgba(255, 255, 255, .1)"></path><path d="M2847.69 0L5000 2067.36L5000 2360.4900000000002L2198.31 0z" fill="rgba(255, 255, 255, .075)"></path><path d="M2198.31 0L5000 2360.4900000000002L5000 2718.92L1676.63 0z" fill="rgba(255, 255, 255, .05)"></path><path d="M1676.63 0L5000 2718.92L5000 3454.82L783.6200000000001 0z" fill="rgba(255, 255, 255, .025)"></path><path d="M0 5000L2315.28 5000L0 3220.2200000000003z" fill="rgba(0, 0, 0, .1)"></path><path d="M0 3220.2200000000003L2315.28 5000L2536.0200000000004 5000L0 2279.75z" fill="rgba(0, 0, 0, .075)"></path><path d="M0 2279.75L2536.0200000000004 5000L2932.5000000000005 5000L0 1358.06z" fill="rgba(0, 0, 0, .05)"></path><path d="M0 1358.06L2932.5000000000005 5000L4095.7100000000005 5000L0 1105.78z" fill="rgba(0, 0, 0, .025)"></path></g><defs><mask id="SvgjsMask1021"><rect width="5000" height="5000" fill="#ffffff"></rect></mask></defs></svg>